# xmcd
#
# Track frame offsets: 
#        150
#        27290
#        45211
#        69114
#        87161
#        115377
#        130980
#        149991
#        169969
#        193361
#        197922
#        220161
#        237518
#        255547
#        283543
#
# Disc length: 4070 seconds
#
# Revision: 2
# Processed by: cddbd v1.5.2PL0 Copyright (c) Steve Scherf et al.
# Submitted via: ExactAudioCopy v0.95b4
#
DISCID=e70fe40f
DTITLE=Majbritte Ulrikkeholm - Songs From The Prophet
DYEAR=2003
DGENRE=New Age
TTITLE0=The Temple Invisible
TTITLE1=Work
TTITLE2=Friends
TTITLE3=Raiment And Food For Your Soul
TTITLE4=The Pain Of Too Much Tenderness
TTITLE5=Pain I
TTITLE6=The Secret Of Death
TTITLE7=Your Children
TTITLE8=Joy And Sorrow
TTITLE9=Look Into Space
TTITLE10=Petals
TTITLE11=Marriage
TTITLE12=Pain II
TTITLE13=Good And Evil
TTITLE14=Farewell People Of Orphalese
EXTD=Fønix music
EXTT0=
EXTT1=
EXTT2=
EXTT3=
EXTT4=
EXTT5=
EXTT6=
EXTT7=
EXTT8=
EXTT9=
EXTT10=
EXTT11=
EXTT12=
EXTT13=
EXTT14=
PLAYORDER=
